<?xml version="1.0" encoding="utf-8"?>
<!-- Generator: Adobe Illustrator 23.0.2, SVG Export Plug-In . SVG Version: 6.00 Build 0)  -->
<svg  width="127.567" height="40" version="1.1" id="Слой_1" xmlns="http://www.w3.org/2000/svg" xmlns:xlink="http://www.w3.org/1999/xlink" x="0px" y="0px"
	 viewBox="0 0 120 40" style="enable-background:new 0 0 120 40;" xml:space="preserve">
<style type="text/css">
	.st0{fill:#FFFFFF;}
	.st1{fill:#42E8E0;}
</style>
<g>
	<polygon class="st0" points="71.1,18.3 74.2,0.4 70.6,0.4 67.5,18.3 	"/>
	<polygon class="st0" points="71,39.8 74.1,21.9 70.5,21.9 67.4,39.8 	"/>
	<path class="st0" d="M119.3,22.6l-0.6,3.3l-0.3,0.1c-1.8-1.2-3.1-1.5-4.2-1.5c-1.6,0-2.6,1-2.6,2c-0.1,2.7,6.5,2.9,6.2,7.7
		c-0.2,3.2-3.2,5.8-7.2,5.8c-1.8,0-3.5-0.4-5-1.2l0.6-3.6l0.4-0.2c1.3,1.4,3.4,2.1,4.7,2.1c1.7,0,2.7-1,2.8-2.1
		c0.2-2.8-6.4-2.8-6.1-7.7c0.2-3.2,3.1-5.7,7-5.7C116.4,21.7,117.9,22,119.3,22.6z"/>
	<path class="st0" d="M67.2,1l-0.6,3.3l-0.3,0.1C64.4,3.2,63.1,3,62.1,3c-1.6,0-2.6,1-2.6,2c-0.1,2.7,6.5,2.9,6.2,7.7
		c-0.2,3.2-3.1,5.8-7.1,5.8c-1.7,0-3.5-0.4-5-1.2l0.6-3.6l0.4-0.2c1.3,1.4,3.4,2.1,4.7,2.1s2.7-1,2.8-2.1c0.1-2.8-6.4-2.8-6.1-7.7
		c0.2-3.2,3.2-5.7,7-5.7C64.3,0.1,65.8,0.4,67.2,1z"/>
	<path class="st0" d="M88.7,18.3h-4.2L82,11.8l-4.9,6.5h-3.7l6.9-9.1l-3.7-8.9h4.2l2.4,6.3l4.6-6.3h3.8L85,9.1L88.7,18.3z"/>
	<path class="st0" d="M63.8,39.8H60l-4.8-12.3h-0.3l-2,12.3h-3.3l3.1-17.9h3.8l4.8,12.3h0.3l2-12.3h3.3L63.8,39.8z"/>
	<path class="st0" d="M88.8,39.8h-3.8l-4.8-12.3h-0.3l-2,12.3h-3.3l3.1-17.9h3.8l4.8,12.3h0.3l2-12.3h3.3L88.8,39.8z"/>
	<g>
		<polygon class="st0" points="41.9,21.9 3.8,21.9 4.4,18.3 42.5,18.3 		"/>
		<polygon class="st0" points="41.1,26.4 3,26.4 3.7,22.8 41.8,22.8 		"/>
		<polygon class="st1" points="40.4,30.9 2.3,30.9 2.9,27.3 41,27.3 		"/>
		<polygon class="st1" points="39.6,35.3 1.5,35.3 2.1,31.8 40.2,31.8 		"/>
		<polygon class="st1" points="38.8,39.8 0.7,39.8 1.3,36.2 39.4,36.2 		"/>
		<polygon class="st0" points="45,4 6.9,4 7.5,0.4 45.6,0.4 		"/>
		<polygon class="st0" points="44.2,8.5 6.1,8.5 6.7,4.9 44.8,4.9 		"/>
		<polygon class="st0" points="43.5,12.9 5.3,12.9 6,9.4 44.1,9.4 		"/>
		<polygon class="st0" points="42.7,17.4 4.6,17.4 5.2,13.8 43.3,13.8 		"/>
	</g>
	<polygon class="st0" points="97.2,32.2 102.8,32.2 103.1,32.1 103.6,29.2 97.8,29.2 98.5,24.8 105.5,24.8 105.9,24.6 106.3,21.9 
		95.4,21.9 92.4,39.8 102.9,39.8 103.3,39.6 103.7,36.9 96.5,36.9 	"/>
</g>
</svg>
